<svg xmlns="http://www.w3.org/2000/svg" width="100" height="100" viewBox="0 0 100 100">
  <defs>
    <style>
      .cls-1 {
        fill-rule: evenodd;
       fill:purple;
      }
    </style>
  </defs>
  <path id="C_" data-name="C#" class="cls-1" d="M44.751,56.332a8.489,8.489,0,0,1-5.615,1.912,9.67,9.67,0,0,1-5.066-1.4A8.258,8.258,0,0,1,30.621,52.6a18.2,18.2,0,0,1-1.109-6.643,17.813,17.813,0,0,1,.936-5.727A8.7,8.7,0,0,1,33.693,35.8a9.643,9.643,0,0,1,5.748-1.648,8.025,8.025,0,0,1,4.964,1.485,9.22,9.22,0,0,1,3.011,4.74l3.886-.916a11.835,11.835,0,0,0-4.252-6.409,12.229,12.229,0,0,0-7.528-2.279,14.8,14.8,0,0,0-7.233,1.8,12.2,12.2,0,0,0-5.066,5.269,17.574,17.574,0,0,0-1.78,8.128,20.287,20.287,0,0,0,1.577,8,12.256,12.256,0,0,0,4.6,5.686,14.165,14.165,0,0,0,7.843,1.963,12.3,12.3,0,0,0,7.884-2.553,13.287,13.287,0,0,0,4.466-7.416l-3.947-1A9.787,9.787,0,0,1,44.751,56.332Zm13.855,5.29,1.77-8.667h6.388l-1.75,8.667h3.052l1.77-8.667H76.1V49.924H70.447l1.526-7.385H76.1V39.507h-3.52l1.77-8.728H71.281l-1.77,8.728H63.1l1.77-8.728H61.821l-1.77,8.728H53.886v3.032H59.44l-1.505,7.385H53.886v3.031h3.438l-1.77,8.667h3.052Zm3.886-19.084H68.9l-1.526,7.385H60.986Z"/>
</svg>
